<svg xmlns="http://www.w3.org/2000/svg" width="17.764" height="17.76" viewBox="0 0 17.764 17.76">
    <path d="M8.884 4.326a4.553 4.553 0 1 0 4.553 4.553 4.546 4.546 0 0 0-4.553-4.553zm0 7.514a2.96 2.96 0 1 1 2.96-2.96 2.966 2.966 0 0 1-2.96 2.96zm5.8-7.7a1.062 1.062 0 1 1-1.062-1.062 1.06 1.06 0 0 1 1.063 1.062zm3.021 1.078a5.256 5.256 0 0 0-1.435-3.721A5.29 5.29 0 0 0 12.545.062c-1.466-.083-5.861-.083-7.327 0a5.283 5.283 0 0 0-3.721 1.431A5.273 5.273 0 0 0 .062 5.214c-.083 1.466-.083 5.861 0 7.327a5.256 5.256 0 0 0 1.435 3.721 5.3 5.3 0 0 0 3.721 1.435c1.466.083 5.861.083 7.327 0a5.256 5.256 0 0 0 3.721-1.435 5.29 5.29 0 0 0 1.439-3.721c.083-1.466.083-5.857 0-7.323zm-1.894 8.9a3 3 0 0 1-1.688 1.688c-1.169.464-3.943.357-5.235.357s-4.07.1-5.235-.357a3 3 0 0 1-1.688-1.688c-.464-1.169-.357-3.943-.357-5.235s-.1-4.07.357-5.235a3 3 0 0 1 1.684-1.692c1.169-.464 3.943-.357 5.235-.357s4.07-.1 5.235.357a3 3 0 0 1 1.686 1.689c.464 1.169.357 3.943.357 5.235s.108 4.069-.357 5.234z" data-name="Icon awesome-instagram"/>
</svg>
