<svg xmlns="http://www.w3.org/2000/svg" width="20.015" height="16.287" viewBox="0 0 20.015 16.287">
    <path d="M20.015 1.93a8.3 8.3 0 0 1-2.358.649A4.121 4.121 0 0 0 19.464.306a8.159 8.159 0 0 1-2.608 1 4.105 4.105 0 0 0-7.1 2.808 4.02 4.02 0 0 0 .106.937 11.637 11.637 0 0 1-8.475-4.3 4.114 4.114 0 0 0 1.277 5.488 4.011 4.011 0 0 1-1.866-.513v.051a4.11 4.11 0 0 0 3.3 4.029 4.133 4.133 0 0 1-1.082.144 3.874 3.874 0 0 1-.772-.076 4.113 4.113 0 0 0 3.843 2.854 8.233 8.233 0 0 1-5.1 1.76 8.323 8.323 0 0 1-.98-.059 11.478 11.478 0 0 0 6.28 1.858 11.614 11.614 0 0 0 11.693-11.7c0-.178 0-.356-.013-.53a8.359 8.359 0 0 0 2.048-2.127z" data-name="Icon ionic-logo-twitter"/>
</svg>
